<svg xmlns="http://www.w3.org/2000/svg" xmlns:xlink="http://www.w3.org/1999/xlink" width="1080" zoomAndPan="magnify" viewBox="0 0 810 809.999993" height="1080" preserveAspectRatio="xMidYMid meet" version="1.0"><defs><g/><clipPath id="8e822f62c7"><path d="M 66.613281 115.292969 L 241.363281 115.292969 L 241.363281 290.042969 L 66.613281 290.042969 Z M 66.613281 115.292969 " clip-rule="nonzero"/></clipPath><clipPath id="ab8089e05a"><path d="M 527.039062 463.671875 L 747.539062 463.671875 L 747.539062 684.171875 L 527.039062 684.171875 Z M 527.039062 463.671875 " clip-rule="nonzero"/></clipPath><clipPath id="302753ad8d"><path d="M 97.828125 97.828125 L 712.078125 97.828125 L 712.078125 712.078125 L 97.828125 712.078125 Z M 97.828125 97.828125 " clip-rule="nonzero"/></clipPath></defs><rect x="-81" width="972" fill="#ffffff" y="-80.999999" height="971.999992" fill-opacity="1"/><rect x="-81" width="972" fill="#ffffff" y="-80.999999" height="971.999992" fill-opacity="1"/><rect x="-81" width="972" fill="#ffffff" y="-80.999999" height="971.999992" fill-opacity="1"/><g clip-path="url(#8e822f62c7)"><path fill="#51009d" d="M 153.988281 115.292969 C 105.730469 115.292969 66.613281 154.414062 66.613281 202.667969 C 66.613281 250.925781 105.730469 290.042969 153.988281 290.042969 C 202.242188 290.042969 241.363281 250.925781 241.363281 202.667969 C 241.363281 154.414062 202.242188 115.292969 153.988281 115.292969 " fill-opacity="1" fill-rule="nonzero"/></g><g clip-path="url(#ab8089e05a)"><path fill="#990587" d="M 637.289062 463.671875 C 576.402344 463.671875 527.039062 513.03125 527.039062 573.921875 C 527.039062 634.8125 576.402344 684.171875 637.289062 684.171875 C 698.179688 684.171875 747.539062 634.8125 747.539062 573.921875 C 747.539062 513.03125 698.179688 463.671875 637.289062 463.671875 " fill-opacity="1" fill-rule="nonzero"/></g><g clip-path="url(#302753ad8d)"><path fill="#0031e2" d="M 404.953125 97.828125 C 235.332031 97.828125 97.828125 235.332031 97.828125 404.953125 C 97.828125 574.570312 235.332031 712.078125 404.953125 712.078125 C 574.570312 712.078125 712.078125 574.570312 712.078125 404.953125 C 712.078125 235.332031 574.570312 97.828125 404.953125 97.828125 " fill-opacity="1" fill-rule="nonzero"/></g><g fill="#ffffff" fill-opacity="1"><g transform="translate(128.338583, 444.922058)"><g><path d="M 31.265625 0 L 28.921875 -7.078125 L 13.796875 -7.078125 L 11.453125 0 L 0.546875 0 L 15.1875 -42.234375 L 27.65625 -42.234375 L 42.234375 0 Z M 16.375 -14.875 L 26.34375 -14.875 L 21.359375 -29.875 Z M 16.375 -14.875 "/></g></g></g><g fill="#ffffff" fill-opacity="1"><g transform="translate(171.118541, 444.922058)"><g><path d="M 4.3125 -16.984375 L 4.3125 -42.125 L 14.578125 -42.125 L 14.578125 -16.984375 C 14.578125 -14.460938 15.195312 -12.519531 16.4375 -11.15625 C 17.675781 -9.800781 19.492188 -9.125 21.890625 -9.125 C 24.296875 -9.125 26.140625 -9.800781 27.421875 -11.15625 C 28.703125 -12.519531 29.34375 -14.460938 29.34375 -16.984375 L 29.34375 -42.125 L 39.59375 -42.125 L 39.59375 -16.984375 C 39.59375 -13.265625 38.722656 -10.050781 36.984375 -7.34375 C 35.242188 -4.644531 33.046875 -2.675781 30.390625 -1.4375 C 27.734375 -0.195312 24.84375 0.421875 21.71875 0.421875 C 16.84375 0.421875 12.722656 -1.097656 9.359375 -4.140625 C 5.992188 -7.179688 4.3125 -11.460938 4.3125 -16.984375 Z M 4.3125 -16.984375 "/></g></g></g><g fill="#ffffff" fill-opacity="1"><g transform="translate(214.978502, 444.922058)"><g><path d="M 1.625 -34.3125 L 1.625 -42.125 L 34.859375 -42.125 L 34.859375 -34.3125 L 23.34375 -34.3125 L 23.34375 0 L 13.078125 0 L 13.078125 -34.3125 Z M 1.625 -34.3125 "/></g></g></g><g fill="#ffffff" fill-opacity="1"><g transform="translate(251.458465, 444.922058)"><g><path d="M 30 -42.234375 L 30 -34.4375 L 14.765625 -34.4375 L 14.765625 -25.375 L 28.203125 -25.375 L 28.203125 -17.578125 L 14.765625 -17.578125 L 14.765625 -7.796875 L 30 -7.796875 L 30 0 L 4.5 0 L 4.5 -42.234375 Z M 30 -42.234375 "/></g></g></g><g fill="#ffffff" fill-opacity="1"><g transform="translate(285.778437, 444.922058)"><g><path d="M 31.921875 -42.234375 L 42.1875 -42.234375 L 42.1875 0 L 31.921875 0 L 14.765625 -26.578125 L 14.765625 0 L 4.5 0 L 4.5 -42.234375 L 14.765625 -42.234375 L 31.921875 -15.65625 Z M 31.921875 -42.234375 "/></g></g></g><g fill="#ffffff" fill-opacity="1"><g transform="translate(332.458392, 444.922058)"><g><path d="M 1.625 -34.3125 L 1.625 -42.125 L 34.859375 -42.125 L 34.859375 -34.3125 L 23.34375 -34.3125 L 23.34375 0 L 13.078125 0 L 13.078125 -34.3125 Z M 1.625 -34.3125 "/></g></g></g><g fill="#ffffff" fill-opacity="1"><g transform="translate(368.938356, 444.922058)"><g><path d="M 4.5 0 L 4.5 -42.125 L 14.765625 -42.125 L 14.765625 0 Z M 4.5 0 "/></g></g></g><g fill="#ffffff" fill-opacity="1"><g transform="translate(388.198326, 444.922058)"><g><path d="M 8.3125 -5.71875 C 4.132812 -9.78125 2.046875 -14.929688 2.046875 -21.171875 C 2.046875 -27.421875 4.132812 -32.570312 8.3125 -36.625 C 12.488281 -40.6875 17.597656 -42.71875 23.640625 -42.71875 C 28.316406 -42.71875 32.472656 -41.476562 36.109375 -39 C 39.753906 -36.519531 42.296875 -33.082031 43.734375 -28.6875 L 31.5 -28.6875 C 29.894531 -31.757812 27.332031 -33.296875 23.8125 -33.296875 C 20.300781 -33.296875 17.535156 -32.195312 15.515625 -30 C 13.492188 -27.800781 12.484375 -24.859375 12.484375 -21.171875 C 12.484375 -17.492188 13.492188 -14.554688 15.515625 -12.359375 C 17.535156 -10.160156 20.300781 -9.0625 23.8125 -9.0625 C 27.332031 -9.0625 29.894531 -10.601562 31.5 -13.6875 L 43.734375 -13.6875 C 42.296875 -9.28125 39.753906 -5.835938 36.109375 -3.359375 C 32.472656 -0.878906 28.316406 0.359375 23.640625 0.359375 C 17.597656 0.359375 12.488281 -1.664062 8.3125 -5.71875 Z M 8.3125 -5.71875 "/></g></g></g><g fill="#ffffff" fill-opacity="1"><g transform="translate(434.038275, 444.922058)"><g><path d="M 31.265625 0 L 28.921875 -7.078125 L 13.796875 -7.078125 L 11.453125 0 L 0.546875 0 L 15.1875 -42.234375 L 27.65625 -42.234375 L 42.234375 0 Z M 16.375 -14.875 L 26.34375 -14.875 L 21.359375 -29.875 Z M 16.375 -14.875 "/></g></g></g><g fill="#ffffff" fill-opacity="1"><g transform="translate(476.818234, 444.922058)"><g><path d="M 14.765625 -7.796875 L 19.3125 -7.796875 C 23.238281 -7.796875 26.320312 -8.992188 28.5625 -11.390625 C 30.800781 -13.796875 31.921875 -17.019531 31.921875 -21.0625 C 31.921875 -25.101562 30.800781 -28.320312 28.5625 -30.71875 C 26.320312 -33.113281 23.238281 -34.3125 19.3125 -34.3125 L 14.765625 -34.3125 Z M 19.3125 -42.125 C 26.039062 -42.125 31.5625 -40.171875 35.875 -36.265625 C 40.195312 -32.367188 42.359375 -27.3125 42.359375 -21.09375 C 42.359375 -14.875 40.195312 -9.800781 35.875 -5.875 C 31.5625 -1.957031 26.039062 0 19.3125 0 L 4.5 0 L 4.5 -42.125 Z M 19.3125 -42.125 "/></g></g></g><g fill="#ffffff" fill-opacity="1"><g transform="translate(521.158205, 444.922058)"><g><path d="M 31.703125 -12.359375 C 33.722656 -14.554688 34.734375 -17.492188 34.734375 -21.171875 C 34.734375 -24.859375 33.722656 -27.800781 31.703125 -30 C 29.691406 -32.195312 26.992188 -33.296875 23.609375 -33.296875 C 20.234375 -33.296875 17.535156 -32.195312 15.515625 -30 C 13.492188 -27.800781 12.484375 -24.859375 12.484375 -21.171875 C 12.484375 -17.492188 13.492188 -14.554688 15.515625 -12.359375 C 17.535156 -10.160156 20.234375 -9.0625 23.609375 -9.0625 C 26.992188 -9.0625 29.691406 -10.160156 31.703125 -12.359375 Z M 8.3125 -5.6875 C 4.132812 -9.769531 2.046875 -14.929688 2.046875 -21.171875 C 2.046875 -27.421875 4.132812 -32.570312 8.3125 -36.625 C 12.488281 -40.6875 17.609375 -42.71875 23.671875 -42.71875 C 29.734375 -42.71875 34.832031 -40.6875 38.96875 -36.625 C 43.113281 -32.570312 45.1875 -27.421875 45.1875 -21.171875 C 45.1875 -14.929688 43.101562 -9.769531 38.9375 -5.6875 C 34.78125 -1.613281 29.679688 0.421875 23.640625 0.421875 C 17.597656 0.421875 12.488281 -1.613281 8.3125 -5.6875 Z M 8.3125 -5.6875 "/></g></g></g><g fill="#ffffff" fill-opacity="1"><g transform="translate(568.43814, 444.922058)"><g><path d="M 14.765625 -16.375 L 14.765625 0 L 4.5 0 L 4.5 -42.125 L 21.125 -42.125 C 26 -42.125 29.796875 -40.863281 32.515625 -38.34375 C 35.234375 -35.820312 36.59375 -32.78125 36.59375 -29.21875 C 36.59375 -26.78125 35.851562 -24.398438 34.375 -22.078125 C 32.894531 -19.753906 30.476562 -18.113281 27.125 -17.15625 L 37.4375 0 L 25.4375 0 L 15.953125 -16.375 Z M 14.765625 -34.3125 L 14.765625 -24.1875 L 21.125 -24.1875 C 22.675781 -24.1875 23.898438 -24.644531 24.796875 -25.5625 C 25.703125 -26.476562 26.15625 -27.6875 26.15625 -29.1875 C 26.15625 -30.6875 25.695312 -31.914062 24.78125 -32.875 C 23.863281 -33.832031 22.644531 -34.3125 21.125 -34.3125 Z M 14.765625 -34.3125 "/></g></g></g><g fill="#ffffff" fill-opacity="1"><g transform="translate(608.518094, 444.922058)"><g><path d="M 30 -42.234375 L 30 -34.4375 L 14.765625 -34.4375 L 14.765625 -25.375 L 28.203125 -25.375 L 28.203125 -17.578125 L 14.765625 -17.578125 L 14.765625 -7.796875 L 30 -7.796875 L 30 0 L 4.5 0 L 4.5 -42.234375 Z M 30 -42.234375 "/></g></g></g><g fill="#ffffff" fill-opacity="1"><g transform="translate(642.838054, 444.922058)"><g><path d="M 18.78125 -34.625 C 17.5 -34.625 16.445312 -34.28125 15.625 -33.59375 C 14.8125 -32.914062 14.40625 -31.9375 14.40625 -30.65625 C 14.40625 -29.375 14.785156 -28.34375 15.546875 -27.5625 C 16.304688 -26.789062 17.296875 -26.191406 18.515625 -25.765625 C 19.734375 -25.347656 21.09375 -24.945312 22.59375 -24.5625 C 24.09375 -24.1875 25.582031 -23.726562 27.0625 -23.1875 C 28.539062 -22.644531 29.890625 -21.972656 31.109375 -21.171875 C 32.328125 -20.378906 33.316406 -19.25 34.078125 -17.78125 C 34.835938 -16.320312 35.21875 -14.578125 35.21875 -12.546875 C 35.21875 -8.984375 33.765625 -5.929688 30.859375 -3.390625 C 27.960938 -0.847656 24.144531 0.421875 19.40625 0.421875 C 14.664062 0.421875 10.84375 -0.71875 7.9375 -3 C 5.039062 -5.28125 3.59375 -8.519531 3.59375 -12.71875 L 14.515625 -12.71875 C 14.796875 -9.363281 16.519531 -7.6875 19.6875 -7.6875 C 21.164062 -7.6875 22.320312 -8.070312 23.15625 -8.84375 C 24 -9.625 24.421875 -10.613281 24.421875 -11.8125 C 24.421875 -13.019531 24.039062 -14.003906 23.28125 -14.765625 C 22.519531 -15.523438 21.53125 -16.125 20.3125 -16.5625 C 19.09375 -17 17.734375 -17.40625 16.234375 -17.78125 C 14.734375 -18.164062 13.242188 -18.640625 11.765625 -19.203125 C 10.285156 -19.765625 8.929688 -20.429688 7.703125 -21.203125 C 6.484375 -21.984375 5.492188 -23.101562 4.734375 -24.5625 C 3.972656 -26.03125 3.59375 -27.765625 3.59375 -29.765625 C 3.59375 -33.679688 5.050781 -36.816406 7.96875 -39.171875 C 10.894531 -41.535156 14.628906 -42.71875 19.171875 -42.71875 C 23.710938 -42.71875 27.378906 -41.6875 30.171875 -39.625 C 32.972656 -37.570312 34.4375 -34.320312 34.5625 -29.875 L 23.40625 -29.875 C 23.238281 -31.394531 22.742188 -32.566406 21.921875 -33.390625 C 21.109375 -34.210938 20.0625 -34.625 18.78125 -34.625 Z M 18.78125 -34.625 "/></g></g></g></svg>