<svg xmlns="http://www.w3.org/2000/svg" xmlns:xlink="http://www.w3.org/1999/xlink" width="1080" zoomAndPan="magnify" viewBox="0 0 810 809.999993" height="1080" preserveAspectRatio="xMidYMid meet" version="1.0"><defs><g/><clipPath id="5a841e97a3"><path d="M 486.4375 60.667969 L 661.1875 60.667969 L 661.1875 235.417969 L 486.4375 235.417969 Z M 486.4375 60.667969 " clip-rule="nonzero"/></clipPath><clipPath id="c291b01a14"><path d="M 273.699219 618.65625 L 392.199219 618.65625 L 392.199219 737.15625 L 273.699219 737.15625 Z M 273.699219 618.65625 " clip-rule="nonzero"/></clipPath><clipPath id="8c6de698e3"><path d="M 81 508.3125 L 301.5 508.3125 L 301.5 728.8125 L 81 728.8125 Z M 81 508.3125 " clip-rule="nonzero"/></clipPath><clipPath id="395674920f"><path d="M 97.828125 97.828125 L 712.078125 97.828125 L 712.078125 712.078125 L 97.828125 712.078125 Z M 97.828125 97.828125 " clip-rule="nonzero"/></clipPath></defs><rect x="-81" width="972" fill="#ffffff" y="-80.999999" height="971.999992" fill-opacity="1"/><rect x="-81" width="972" fill="#ffffff" y="-80.999999" height="971.999992" fill-opacity="1"/><g clip-path="url(#5a841e97a3)"><path fill="#0031e2" d="M 573.8125 60.667969 C 525.558594 60.667969 486.4375 99.789062 486.4375 148.042969 C 486.4375 196.300781 525.558594 235.417969 573.8125 235.417969 C 622.070312 235.417969 661.1875 196.300781 661.1875 148.042969 C 661.1875 99.789062 622.070312 60.667969 573.8125 60.667969 " fill-opacity="1" fill-rule="nonzero"/></g><g clip-path="url(#c291b01a14)"><path fill="#0031e2" d="M 332.949219 618.65625 C 300.226562 618.65625 273.699219 645.183594 273.699219 677.90625 C 273.699219 710.628906 300.226562 737.15625 332.949219 737.15625 C 365.671875 737.15625 392.199219 710.628906 392.199219 677.90625 C 392.199219 645.183594 365.671875 618.65625 332.949219 618.65625 " fill-opacity="1" fill-rule="nonzero"/></g><g clip-path="url(#8c6de698e3)"><path fill="#acacaa" d="M 191.25 508.3125 C 130.359375 508.3125 81 557.671875 81 618.5625 C 81 679.449219 130.359375 728.8125 191.25 728.8125 C 252.140625 728.8125 301.5 679.449219 301.5 618.5625 C 301.5 557.671875 252.140625 508.3125 191.25 508.3125 " fill-opacity="1" fill-rule="nonzero"/></g><g clip-path="url(#395674920f)"><path fill="#29abe2" d="M 404.953125 97.828125 C 235.332031 97.828125 97.828125 235.332031 97.828125 404.953125 C 97.828125 574.570312 235.332031 712.078125 404.953125 712.078125 C 574.570312 712.078125 712.078125 574.570312 712.078125 404.953125 C 712.078125 235.332031 574.570312 97.828125 404.953125 97.828125 " fill-opacity="1" fill-rule="nonzero"/></g><g fill="#ffffff" fill-opacity="1"><g transform="translate(162.651081, 434.625056)"><g><path d="M 51.703125 -70.203125 L 68.796875 -70.203125 L 68.796875 0 L 51.703125 0 L 51.703125 -29.09375 L 24.59375 -29.09375 L 24.59375 0 L 7.5 0 L 7.5 -70.203125 L 24.59375 -70.203125 L 24.59375 -42.09375 L 51.703125 -42.09375 Z M 51.703125 -70.203125 "/></g></g></g><g fill="#ffffff" fill-opacity="1"><g transform="translate(238.948139, 434.625056)"><g><path d="M 52.09375 0 L 48.203125 -11.796875 L 23 -11.796875 L 19.09375 0 L 0.90625 0 L 25.296875 -70.40625 L 46.09375 -70.40625 L 70.40625 0 Z M 27.296875 -24.796875 L 43.90625 -24.796875 L 35.59375 -49.796875 Z M 27.296875 -24.796875 "/></g></g></g><g fill="#ffffff" fill-opacity="1"><g transform="translate(310.245388, 434.625056)"><g><path d="M 13.84375 -9.546875 C 6.882812 -16.316406 3.40625 -24.898438 3.40625 -35.296875 C 3.40625 -45.703125 6.882812 -54.285156 13.84375 -61.046875 C 20.8125 -67.816406 29.332031 -71.203125 39.40625 -71.203125 C 47.195312 -71.203125 54.125 -69.132812 60.1875 -65 C 66.257812 -60.863281 70.5 -55.128906 72.90625 -47.796875 L 52.5 -47.796875 C 49.832031 -52.929688 45.566406 -55.5 39.703125 -55.5 C 33.835938 -55.5 29.21875 -53.664062 25.84375 -50 C 22.476562 -46.332031 20.796875 -41.429688 20.796875 -35.296875 C 20.796875 -29.160156 22.476562 -24.257812 25.84375 -20.59375 C 29.21875 -16.925781 33.835938 -15.09375 39.703125 -15.09375 C 45.566406 -15.09375 49.832031 -17.660156 52.5 -22.796875 L 72.90625 -22.796875 C 70.5 -15.460938 66.257812 -9.726562 60.1875 -5.59375 C 54.125 -1.46875 47.195312 0.59375 39.40625 0.59375 C 29.332031 0.59375 20.8125 -2.785156 13.84375 -9.546875 Z M 13.84375 -9.546875 "/></g></g></g><g fill="#ffffff" fill-opacity="1"><g transform="translate(386.642434, 434.625056)"><g><path d="M 24.59375 0 L 7.5 0 L 7.5 -70.203125 L 24.59375 -70.203125 L 24.59375 -39.40625 L 47.796875 -70.203125 L 70.203125 -70.203125 L 41.296875 -35.09375 L 70.203125 0 L 48.203125 0 L 24.59375 -31 Z M 24.59375 0 "/></g></g></g><g fill="#ffffff" fill-opacity="1"><g transform="translate(458.63966, 434.625056)"><g><path d="M 50 -70.40625 L 50 -57.40625 L 24.59375 -57.40625 L 24.59375 -42.296875 L 47 -42.296875 L 47 -29.296875 L 24.59375 -29.296875 L 24.59375 -13 L 50 -13 L 50 0 L 7.5 0 L 7.5 -70.40625 Z M 50 -70.40625 "/></g></g></g><g fill="#ffffff" fill-opacity="1"><g transform="translate(515.837457, 434.625056)"><g><path d="M 24.59375 -27.296875 L 24.59375 0 L 7.5 0 L 7.5 -70.203125 L 35.203125 -70.203125 C 43.335938 -70.203125 49.671875 -68.097656 54.203125 -63.890625 C 58.734375 -59.691406 61 -54.628906 61 -48.703125 C 61 -44.628906 59.765625 -40.660156 57.296875 -36.796875 C 54.828125 -32.929688 50.796875 -30.195312 45.203125 -28.59375 L 62.40625 0 L 42.40625 0 L 26.59375 -27.296875 Z M 24.59375 -57.203125 L 24.59375 -40.296875 L 35.203125 -40.296875 C 37.796875 -40.296875 39.84375 -41.0625 41.34375 -42.59375 C 42.84375 -44.132812 43.59375 -46.15625 43.59375 -48.65625 C 43.59375 -51.15625 42.828125 -53.203125 41.296875 -54.796875 C 39.765625 -56.398438 37.734375 -57.203125 35.203125 -57.203125 Z M 24.59375 -57.203125 "/></g></g></g><g fill="#ffffff" fill-opacity="1"><g transform="translate(582.634855, 434.625056)"><g><path d="M 31.296875 -57.703125 C 29.160156 -57.703125 27.410156 -57.132812 26.046875 -56 C 24.679688 -54.863281 24 -53.226562 24 -51.09375 C 24 -48.96875 24.628906 -47.253906 25.890625 -45.953125 C 27.160156 -44.648438 28.8125 -43.648438 30.84375 -42.953125 C 32.882812 -42.253906 35.15625 -41.585938 37.65625 -40.953125 C 40.15625 -40.316406 42.632812 -39.546875 45.09375 -38.640625 C 47.5625 -37.742188 49.8125 -36.628906 51.84375 -35.296875 C 53.882812 -33.960938 55.535156 -32.078125 56.796875 -29.640625 C 58.066406 -27.210938 58.703125 -24.300781 58.703125 -20.90625 C 58.703125 -14.96875 56.285156 -9.878906 51.453125 -5.640625 C 46.617188 -1.410156 40.25 0.703125 32.34375 0.703125 C 24.445312 0.703125 18.082031 -1.195312 13.25 -5 C 8.414062 -8.800781 6 -14.203125 6 -21.203125 L 24.203125 -21.203125 C 24.671875 -15.597656 27.535156 -12.796875 32.796875 -12.796875 C 35.265625 -12.796875 37.195312 -13.445312 38.59375 -14.75 C 40 -16.050781 40.703125 -17.703125 40.703125 -19.703125 C 40.703125 -21.703125 40.066406 -23.332031 38.796875 -24.59375 C 37.535156 -25.863281 35.882812 -26.863281 33.84375 -27.59375 C 31.8125 -28.332031 29.546875 -29.015625 27.046875 -29.640625 C 24.546875 -30.273438 22.0625 -31.0625 19.59375 -32 C 17.132812 -32.9375 14.882812 -34.050781 12.84375 -35.34375 C 10.8125 -36.644531 9.160156 -38.507812 7.890625 -40.9375 C 6.628906 -43.375 6 -46.257812 6 -49.59375 C 6 -56.132812 8.429688 -61.367188 13.296875 -65.296875 C 18.160156 -69.234375 24.375 -71.203125 31.9375 -71.203125 C 39.507812 -71.203125 45.628906 -69.484375 50.296875 -66.046875 C 54.960938 -62.617188 57.394531 -57.203125 57.59375 -49.796875 L 39 -49.796875 C 38.726562 -52.328125 37.910156 -54.273438 36.546875 -55.640625 C 35.179688 -57.015625 33.429688 -57.703125 31.296875 -57.703125 Z M 31.296875 -57.703125 "/></g></g></g></svg>