<svg xmlns="http://www.w3.org/2000/svg" xmlns:xlink="http://www.w3.org/1999/xlink" width="1080" zoomAndPan="magnify" viewBox="0 0 810 809.999993" height="1080" preserveAspectRatio="xMidYMid meet" version="1.0"><defs><g/><clipPath id="4c3274aab5"><path d="M 475.035156 39.832031 L 691.785156 39.832031 L 691.785156 256.582031 L 475.035156 256.582031 Z M 475.035156 39.832031 " clip-rule="nonzero"/></clipPath><clipPath id="cf8ba099b7"><path d="M 97.828125 520.433594 L 259.078125 520.433594 L 259.078125 681.683594 L 97.828125 681.683594 Z M 97.828125 520.433594 " clip-rule="nonzero"/></clipPath><clipPath id="e1a5729611"><path d="M 494.3125 533.996094 L 672.8125 533.996094 L 672.8125 712.496094 L 494.3125 712.496094 Z M 494.3125 533.996094 " clip-rule="nonzero"/></clipPath><clipPath id="e434485fe7"><path d="M 97.828125 97.828125 L 712.078125 97.828125 L 712.078125 712.078125 L 97.828125 712.078125 Z M 97.828125 97.828125 " clip-rule="nonzero"/></clipPath></defs><rect x="-81" width="972" fill="#ffffff" y="-80.999999" height="971.999992" fill-opacity="1"/><rect x="-81" width="972" fill="#ffffff" y="-80.999999" height="971.999992" fill-opacity="1"/><rect x="-81" width="972" fill="#ffffff" y="-80.999999" height="971.999992" fill-opacity="1"/><g clip-path="url(#4c3274aab5)"><path fill="#29abe2" d="M 583.410156 39.832031 C 523.554688 39.832031 475.035156 88.351562 475.035156 148.207031 C 475.035156 208.0625 523.554688 256.582031 583.410156 256.582031 C 643.261719 256.582031 691.785156 208.0625 691.785156 148.207031 C 691.785156 88.351562 643.261719 39.832031 583.410156 39.832031 " fill-opacity="1" fill-rule="nonzero"/></g><g clip-path="url(#cf8ba099b7)"><path fill="#1cdfec" d="M 178.453125 520.433594 C 133.921875 520.433594 97.828125 556.53125 97.828125 601.058594 C 97.828125 645.585938 133.921875 681.683594 178.453125 681.683594 C 222.980469 681.683594 259.078125 645.585938 259.078125 601.058594 C 259.078125 556.53125 222.980469 520.433594 178.453125 520.433594 " fill-opacity="1" fill-rule="nonzero"/></g><g clip-path="url(#e1a5729611)"><path fill="#acacaa" d="M 583.5625 533.996094 C 534.273438 533.996094 494.3125 573.957031 494.3125 623.246094 C 494.3125 672.539062 534.273438 712.496094 583.5625 712.496094 C 632.855469 712.496094 672.8125 672.539062 672.8125 623.246094 C 672.8125 573.957031 632.855469 533.996094 583.5625 533.996094 " fill-opacity="1" fill-rule="nonzero"/></g><g clip-path="url(#e434485fe7)"><path fill="#5b5959" d="M 404.953125 97.828125 C 235.332031 97.828125 97.828125 235.332031 97.828125 404.953125 C 97.828125 574.570312 235.332031 712.078125 404.953125 712.078125 C 574.570312 712.078125 712.078125 574.570312 712.078125 404.953125 C 712.078125 235.332031 574.570312 97.828125 404.953125 97.828125 " fill-opacity="1" fill-rule="nonzero"/></g><g fill="#ffffff" fill-opacity="1"><g transform="translate(127.447958, 423.749999)"><g><path d="M 8.71875 -6.015625 C 4.332031 -10.273438 2.140625 -15.679688 2.140625 -22.234375 C 2.140625 -28.785156 4.332031 -34.191406 8.71875 -38.453125 C 13.113281 -42.722656 18.484375 -44.859375 24.828125 -44.859375 C 29.734375 -44.859375 34.097656 -43.554688 37.921875 -40.953125 C 41.742188 -38.347656 44.410156 -34.734375 45.921875 -30.109375 L 33.078125 -30.109375 C 31.398438 -33.347656 28.710938 -34.96875 25.015625 -34.96875 C 21.316406 -34.96875 18.40625 -33.8125 16.28125 -31.5 C 14.164062 -29.1875 13.109375 -26.097656 13.109375 -22.234375 C 13.109375 -18.367188 14.164062 -15.28125 16.28125 -12.96875 C 18.40625 -10.664062 21.316406 -9.515625 25.015625 -9.515625 C 28.710938 -9.515625 31.398438 -11.128906 33.078125 -14.359375 L 45.921875 -14.359375 C 44.410156 -9.742188 41.742188 -6.132812 37.921875 -3.53125 C 34.097656 -0.925781 29.734375 0.375 24.828125 0.375 C 18.484375 0.375 13.113281 -1.753906 8.71875 -6.015625 Z M 8.71875 -6.015625 "/></g></g></g><g fill="#ffffff" fill-opacity="1"><g transform="translate(175.58002, 423.749999)"><g><path d="M 33.296875 -12.96875 C 35.421875 -15.28125 36.484375 -18.367188 36.484375 -22.234375 C 36.484375 -26.097656 35.421875 -29.1875 33.296875 -31.5 C 31.171875 -33.8125 28.332031 -34.96875 24.78125 -34.96875 C 21.238281 -34.96875 18.40625 -33.8125 16.28125 -31.5 C 14.164062 -29.1875 13.109375 -26.097656 13.109375 -22.234375 C 13.109375 -18.367188 14.164062 -15.28125 16.28125 -12.96875 C 18.40625 -10.664062 21.238281 -9.515625 24.78125 -9.515625 C 28.332031 -9.515625 31.171875 -10.664062 33.296875 -12.96875 Z M 8.71875 -5.984375 C 4.332031 -10.265625 2.140625 -15.679688 2.140625 -22.234375 C 2.140625 -28.785156 4.332031 -34.191406 8.71875 -38.453125 C 13.113281 -42.722656 18.488281 -44.859375 24.84375 -44.859375 C 31.207031 -44.859375 36.5625 -42.722656 40.90625 -38.453125 C 45.257812 -34.191406 47.4375 -28.785156 47.4375 -22.234375 C 47.4375 -15.679688 45.25 -10.265625 40.875 -5.984375 C 36.507812 -1.703125 31.15625 0.4375 24.8125 0.4375 C 18.476562 0.4375 13.113281 -1.703125 8.71875 -5.984375 Z M 8.71875 -5.984375 "/></g></g></g><g fill="#ffffff" fill-opacity="1"><g transform="translate(225.224087, 423.749999)"><g><path d="M 33.515625 -44.359375 L 44.28125 -44.359375 L 44.28125 0 L 33.515625 0 L 15.5 -27.90625 L 15.5 0 L 4.71875 0 L 4.71875 -44.359375 L 15.5 -44.359375 L 33.515625 -16.4375 Z M 33.515625 -44.359375 "/></g></g></g><g fill="#ffffff" fill-opacity="1"><g transform="translate(274.238145, 423.749999)"><g><path d="M 4.71875 0 L 4.71875 -44.21875 L 33.515625 -44.21875 L 33.515625 -36.03125 L 15.5 -36.03125 L 15.5 -26.515625 L 28.984375 -26.515625 L 28.984375 -18.328125 L 15.5 -18.328125 L 15.5 0 Z M 4.71875 0 "/></g></g></g><g fill="#ffffff" fill-opacity="1"><g transform="translate(310.463191, 423.749999)"><g><path d="M 4.71875 0 L 4.71875 -44.21875 L 15.5 -44.21875 L 15.5 0 Z M 4.71875 0 "/></g></g></g><g fill="#ffffff" fill-opacity="1"><g transform="translate(330.686228, 423.749999)"><g><path d="M 15.5 -8.1875 L 20.28125 -8.1875 C 24.394531 -8.1875 27.628906 -9.445312 29.984375 -11.96875 C 32.335938 -14.488281 33.515625 -17.867188 33.515625 -22.109375 C 33.515625 -26.347656 32.335938 -29.726562 29.984375 -32.25 C 27.628906 -34.769531 24.394531 -36.03125 20.28125 -36.03125 L 15.5 -36.03125 Z M 20.28125 -44.21875 C 27.34375 -44.21875 33.140625 -42.171875 37.671875 -38.078125 C 42.210938 -33.984375 44.484375 -28.671875 44.484375 -22.140625 C 44.484375 -15.609375 42.210938 -10.285156 37.671875 -6.171875 C 33.140625 -2.054688 27.34375 0 20.28125 0 L 4.71875 0 L 4.71875 -44.21875 Z M 20.28125 -44.21875 "/></g></g></g><g fill="#ffffff" fill-opacity="1"><g transform="translate(377.243286, 423.749999)"><g><path d="M 31.5 -44.359375 L 31.5 -36.15625 L 15.5 -36.15625 L 15.5 -26.65625 L 29.609375 -26.65625 L 29.609375 -18.453125 L 15.5 -18.453125 L 15.5 -8.1875 L 31.5 -8.1875 L 31.5 0 L 4.71875 0 L 4.71875 -44.359375 Z M 31.5 -44.359375 "/></g></g></g><g fill="#ffffff" fill-opacity="1"><g transform="translate(413.279332, 423.749999)"><g><path d="M 33.515625 -44.359375 L 44.28125 -44.359375 L 44.28125 0 L 33.515625 0 L 15.5 -27.90625 L 15.5 0 L 4.71875 0 L 4.71875 -44.359375 L 15.5 -44.359375 L 33.515625 -16.4375 Z M 33.515625 -44.359375 "/></g></g></g><g fill="#ffffff" fill-opacity="1"><g transform="translate(462.293391, 423.749999)"><g><path d="M 8.71875 -6.015625 C 4.332031 -10.273438 2.140625 -15.679688 2.140625 -22.234375 C 2.140625 -28.785156 4.332031 -34.191406 8.71875 -38.453125 C 13.113281 -42.722656 18.484375 -44.859375 24.828125 -44.859375 C 29.734375 -44.859375 34.097656 -43.554688 37.921875 -40.953125 C 41.742188 -38.347656 44.410156 -34.734375 45.921875 -30.109375 L 33.078125 -30.109375 C 31.398438 -33.347656 28.710938 -34.96875 25.015625 -34.96875 C 21.316406 -34.96875 18.40625 -33.8125 16.28125 -31.5 C 14.164062 -29.1875 13.109375 -26.097656 13.109375 -22.234375 C 13.109375 -18.367188 14.164062 -15.28125 16.28125 -12.96875 C 18.40625 -10.664062 21.316406 -9.515625 25.015625 -9.515625 C 28.710938 -9.515625 31.398438 -11.128906 33.078125 -14.359375 L 45.921875 -14.359375 C 44.410156 -9.742188 41.742188 -6.132812 37.921875 -3.53125 C 34.097656 -0.925781 29.734375 0.375 24.828125 0.375 C 18.484375 0.375 13.113281 -1.753906 8.71875 -6.015625 Z M 8.71875 -6.015625 "/></g></g></g><g fill="#ffffff" fill-opacity="1"><g transform="translate(510.425453, 423.749999)"><g><path d="M 4.71875 0 L 4.71875 -44.21875 L 15.5 -44.21875 L 15.5 0 Z M 4.71875 0 "/></g></g></g><g fill="#ffffff" fill-opacity="1"><g transform="translate(530.648467, 423.749999)"><g><path d="M 32.828125 0 L 30.359375 -7.4375 L 14.484375 -7.4375 L 12.03125 0 L 0.5625 0 L 15.9375 -44.359375 L 29.046875 -44.359375 L 44.359375 0 Z M 17.203125 -15.625 L 27.65625 -15.625 L 22.421875 -31.375 Z M 17.203125 -15.625 "/></g></g></g><g fill="#ffffff" fill-opacity="1"><g transform="translate(575.567532, 423.749999)"><g><path d="M 4.71875 -44.21875 L 15.5 -44.21875 L 15.5 -8.1875 L 28.921875 -8.1875 L 28.921875 0 L 4.71875 0 Z M 4.71875 -44.21875 "/></g></g></g><g fill="#ffffff" fill-opacity="1"><g transform="translate(605.744594, 423.749999)"><g><path d="M 31.5 -44.359375 L 31.5 -36.15625 L 15.5 -36.15625 L 15.5 -26.65625 L 29.609375 -26.65625 L 29.609375 -18.453125 L 15.5 -18.453125 L 15.5 -8.1875 L 31.5 -8.1875 L 31.5 0 L 4.71875 0 L 4.71875 -44.359375 Z M 31.5 -44.359375 "/></g></g></g><g fill="#ffffff" fill-opacity="1"><g transform="translate(641.780664, 423.749999)"><g><path d="M 19.71875 -36.34375 C 18.375 -36.34375 17.269531 -35.984375 16.40625 -35.265625 C 15.550781 -34.554688 15.125 -33.53125 15.125 -32.1875 C 15.125 -30.84375 15.519531 -29.757812 16.3125 -28.9375 C 17.113281 -28.125 18.15625 -27.492188 19.4375 -27.046875 C 20.71875 -26.609375 22.144531 -26.191406 23.71875 -25.796875 C 25.289062 -25.398438 26.851562 -24.914062 28.40625 -24.34375 C 29.96875 -23.78125 31.390625 -23.078125 32.671875 -22.234375 C 33.953125 -21.398438 34.988281 -20.210938 35.78125 -18.671875 C 36.582031 -17.140625 36.984375 -15.304688 36.984375 -13.171875 C 36.984375 -9.429688 35.457031 -6.226562 32.40625 -3.5625 C 29.363281 -0.894531 25.351562 0.4375 20.375 0.4375 C 15.40625 0.4375 11.394531 -0.753906 8.34375 -3.140625 C 5.300781 -5.535156 3.78125 -8.941406 3.78125 -13.359375 L 15.25 -13.359375 C 15.539062 -9.828125 17.34375 -8.0625 20.65625 -8.0625 C 22.21875 -8.0625 23.4375 -8.46875 24.3125 -9.28125 C 25.195312 -10.101562 25.640625 -11.144531 25.640625 -12.40625 C 25.640625 -13.664062 25.238281 -14.691406 24.4375 -15.484375 C 23.644531 -16.285156 22.609375 -16.914062 21.328125 -17.375 C 20.046875 -17.84375 18.613281 -18.273438 17.03125 -18.671875 C 15.457031 -19.078125 13.894531 -19.570312 12.34375 -20.15625 C 10.789062 -20.75 9.375 -21.453125 8.09375 -22.265625 C 6.8125 -23.085938 5.769531 -24.265625 4.96875 -25.796875 C 4.175781 -27.328125 3.78125 -29.144531 3.78125 -31.25 C 3.78125 -35.363281 5.3125 -38.660156 8.375 -41.140625 C 11.445312 -43.617188 15.363281 -44.859375 20.125 -44.859375 C 24.894531 -44.859375 28.75 -43.773438 31.6875 -41.609375 C 34.625 -39.441406 36.15625 -36.03125 36.28125 -31.375 L 24.5625 -31.375 C 24.394531 -32.96875 23.878906 -34.191406 23.015625 -35.046875 C 22.160156 -35.910156 21.0625 -36.34375 19.71875 -36.34375 Z M 19.71875 -36.34375 "/></g></g></g></svg>