<svg xmlns="http://www.w3.org/2000/svg" xmlns:xlink="http://www.w3.org/1999/xlink" width="1080" zoomAndPan="magnify" viewBox="0 0 810 809.999993" height="1080" preserveAspectRatio="xMidYMid meet" version="1.0"><defs><g/><clipPath id="c9878cd476"><path d="M 38.640625 337.011719 L 174.390625 337.011719 L 174.390625 472.761719 L 38.640625 472.761719 Z M 38.640625 337.011719 " clip-rule="nonzero"/></clipPath><clipPath id="b7640fb3fd"><path d="M 539.875 424.136719 L 760.375 424.136719 L 760.375 644.636719 L 539.875 644.636719 Z M 539.875 424.136719 " clip-rule="nonzero"/></clipPath><clipPath id="edbe52193f"><path d="M 97.828125 97.828125 L 712.078125 97.828125 L 712.078125 712.078125 L 97.828125 712.078125 Z M 97.828125 97.828125 " clip-rule="nonzero"/></clipPath></defs><rect x="-81" width="972" fill="#ffffff" y="-80.999999" height="971.999992" fill-opacity="1"/><rect x="-81" width="972" fill="#ffffff" y="-80.999999" height="971.999992" fill-opacity="1"/><g clip-path="url(#c9878cd476)"><path fill="#ff5a00" d="M 106.515625 337.011719 C 69.027344 337.011719 38.640625 367.398438 38.640625 404.886719 C 38.640625 442.371094 69.027344 472.761719 106.515625 472.761719 C 144 472.761719 174.390625 442.371094 174.390625 404.886719 C 174.390625 367.398438 144 337.011719 106.515625 337.011719 " fill-opacity="1" fill-rule="nonzero"/></g><g clip-path="url(#b7640fb3fd)"><path fill="#990587" d="M 650.125 424.136719 C 589.234375 424.136719 539.875 473.5 539.875 534.386719 C 539.875 595.277344 589.234375 644.636719 650.125 644.636719 C 711.015625 644.636719 760.375 595.277344 760.375 534.386719 C 760.375 473.5 711.015625 424.136719 650.125 424.136719 " fill-opacity="1" fill-rule="nonzero"/></g><g clip-path="url(#edbe52193f)"><path fill="#51009d" d="M 404.953125 97.828125 C 235.332031 97.828125 97.828125 235.332031 97.828125 404.953125 C 97.828125 574.570312 235.332031 712.078125 404.953125 712.078125 C 574.570312 712.078125 712.078125 574.570312 712.078125 404.953125 C 712.078125 235.332031 574.570312 97.828125 404.953125 97.828125 " fill-opacity="1" fill-rule="nonzero"/></g><g fill="#ffffff" fill-opacity="1"><g transform="translate(133.647176, 427.500116)"><g><path d="M 37.5 -52.796875 L 37.5 -43.046875 L 18.453125 -43.046875 L 18.453125 -31.71875 L 35.25 -31.71875 L 35.25 -21.96875 L 18.453125 -21.96875 L 18.453125 -9.75 L 37.5 -9.75 L 37.5 0 L 5.625 0 L 5.625 -52.796875 Z M 37.5 -52.796875 "/></g></g></g><g fill="#ffffff" fill-opacity="1"><g transform="translate(176.547137, 427.500116)"><g><path d="M 39.90625 -52.796875 L 52.71875 -52.796875 L 52.71875 0 L 39.90625 0 L 18.453125 -33.21875 L 18.453125 0 L 5.625 0 L 5.625 -52.796875 L 18.453125 -52.796875 L 39.90625 -19.578125 Z M 39.90625 -52.796875 "/></g></g></g><g fill="#ffffff" fill-opacity="1"><g transform="translate(234.897079, 427.500116)"><g><path d="M 10.375 -7.15625 C 5.15625 -12.238281 2.546875 -18.675781 2.546875 -26.46875 C 2.546875 -34.269531 5.15625 -40.707031 10.375 -45.78125 C 15.601562 -50.863281 21.992188 -53.40625 29.546875 -53.40625 C 35.398438 -53.40625 40.597656 -51.851562 45.140625 -48.75 C 49.691406 -45.644531 52.867188 -41.34375 54.671875 -35.84375 L 39.375 -35.84375 C 37.375 -39.695312 34.171875 -41.625 29.765625 -41.625 C 25.367188 -41.625 21.90625 -40.25 19.375 -37.5 C 16.851562 -34.75 15.59375 -31.070312 15.59375 -26.46875 C 15.59375 -21.875 16.851562 -18.203125 19.375 -15.453125 C 21.90625 -12.703125 25.367188 -11.328125 29.765625 -11.328125 C 34.171875 -11.328125 37.375 -13.25 39.375 -17.09375 L 54.671875 -17.09375 C 52.867188 -11.59375 49.691406 -7.289062 45.140625 -4.1875 C 40.597656 -1.09375 35.398438 0.453125 29.546875 0.453125 C 21.992188 0.453125 15.601562 -2.082031 10.375 -7.15625 Z M 10.375 -7.15625 "/></g></g></g><g fill="#ffffff" fill-opacity="1"><g transform="translate(292.197026, 427.500116)"><g><path d="M 18.453125 -20.46875 L 18.453125 0 L 5.625 0 L 5.625 -52.65625 L 26.40625 -52.65625 C 32.5 -52.65625 37.242188 -51.078125 40.640625 -47.921875 C 44.046875 -44.773438 45.75 -40.976562 45.75 -36.53125 C 45.75 -33.476562 44.820312 -30.5 42.96875 -27.59375 C 41.125 -24.695312 38.101562 -22.648438 33.90625 -21.453125 L 46.796875 0 L 31.796875 0 L 19.953125 -20.46875 Z M 18.453125 -42.90625 L 18.453125 -30.21875 L 26.40625 -30.21875 C 28.351562 -30.21875 29.890625 -30.789062 31.015625 -31.9375 C 32.140625 -33.09375 32.703125 -34.609375 32.703125 -36.484375 C 32.703125 -38.359375 32.125 -39.894531 30.96875 -41.09375 C 29.820312 -42.300781 28.300781 -42.90625 26.40625 -42.90625 Z M 18.453125 -42.90625 "/></g></g></g><g fill="#ffffff" fill-opacity="1"><g transform="translate(342.296992, 427.500116)"><g><path d="M 5.625 0 L 5.625 -52.65625 L 18.453125 -52.65625 L 18.453125 0 Z M 5.625 0 "/></g></g></g><g fill="#ffffff" fill-opacity="1"><g transform="translate(366.371972, 427.500116)"><g><path d="M 45.75 -36.53125 C 45.75 -32.976562 44.472656 -29.550781 41.921875 -26.25 C 40.578125 -24.550781 38.566406 -23.160156 35.890625 -22.078125 C 33.210938 -21.003906 30.050781 -20.46875 26.40625 -20.46875 L 18.453125 -20.46875 L 18.453125 0 L 5.625 0 L 5.625 -52.65625 L 26.40625 -52.65625 C 32.5 -52.65625 37.242188 -51.078125 40.640625 -47.921875 C 44.046875 -44.773438 45.75 -40.976562 45.75 -36.53125 Z M 18.453125 -30.21875 L 26.40625 -30.21875 C 28.351562 -30.21875 29.890625 -30.789062 31.015625 -31.9375 C 32.140625 -33.09375 32.703125 -34.609375 32.703125 -36.484375 C 32.703125 -38.359375 32.125 -39.894531 30.96875 -41.09375 C 29.820312 -42.300781 28.300781 -42.90625 26.40625 -42.90625 L 18.453125 -42.90625 Z M 18.453125 -30.21875 "/></g></g></g><g fill="#ffffff" fill-opacity="1"><g transform="translate(414.221915, 427.500116)"><g><path d="M 2.03125 -42.90625 L 2.03125 -52.65625 L 43.578125 -52.65625 L 43.578125 -42.90625 L 29.171875 -42.90625 L 29.171875 0 L 16.34375 0 L 16.34375 -42.90625 Z M 2.03125 -42.90625 "/></g></g></g><g fill="#ffffff" fill-opacity="1"><g transform="translate(459.821858, 427.500116)"><g><path d="M 39.078125 0 L 36.15625 -8.84375 L 17.25 -8.84375 L 14.328125 0 L 0.671875 0 L 18.96875 -52.796875 L 34.578125 -52.796875 L 52.796875 0 Z M 20.46875 -18.59375 L 32.921875 -18.59375 L 26.703125 -37.34375 Z M 20.46875 -18.59375 "/></g></g></g><g fill="#ffffff" fill-opacity="1"><g transform="translate(513.296801, 427.500116)"><g><path d="M 18.453125 -9.75 L 24.15625 -9.75 C 29.050781 -9.75 32.898438 -11.25 35.703125 -14.25 C 38.503906 -17.25 39.90625 -21.273438 39.90625 -26.328125 C 39.90625 -31.378906 38.503906 -35.40625 35.703125 -38.40625 C 32.898438 -41.40625 29.050781 -42.90625 24.15625 -42.90625 L 18.453125 -42.90625 Z M 24.15625 -52.65625 C 32.550781 -52.65625 39.445312 -50.21875 44.84375 -45.34375 C 50.25 -40.46875 52.953125 -34.140625 52.953125 -26.359375 C 52.953125 -18.585938 50.25 -12.25 44.84375 -7.34375 C 39.445312 -2.445312 32.550781 0 24.15625 0 L 5.625 0 L 5.625 -52.65625 Z M 24.15625 -52.65625 "/></g></g></g><g fill="#ffffff" fill-opacity="1"><g transform="translate(568.72177, 427.500116)"><g><path d="M 39.625 -15.453125 C 42.15625 -18.203125 43.421875 -21.875 43.421875 -26.46875 C 43.421875 -31.070312 42.15625 -34.75 39.625 -37.5 C 37.101562 -40.25 33.726562 -41.625 29.5 -41.625 C 25.28125 -41.625 21.90625 -40.25 19.375 -37.5 C 16.851562 -34.75 15.59375 -31.070312 15.59375 -26.46875 C 15.59375 -21.875 16.851562 -18.203125 19.375 -15.453125 C 21.90625 -12.703125 25.28125 -11.328125 29.5 -11.328125 C 33.726562 -11.328125 37.101562 -12.703125 39.625 -15.453125 Z M 10.375 -7.125 C 5.15625 -12.226562 2.546875 -18.675781 2.546875 -26.46875 C 2.546875 -34.269531 5.15625 -40.707031 10.375 -45.78125 C 15.601562 -50.863281 22.003906 -53.40625 29.578125 -53.40625 C 37.160156 -53.40625 43.535156 -50.863281 48.703125 -45.78125 C 53.878906 -40.707031 56.46875 -34.269531 56.46875 -26.46875 C 56.46875 -18.675781 53.867188 -12.226562 48.671875 -7.125 C 43.472656 -2.019531 37.097656 0.53125 29.546875 0.53125 C 21.992188 0.53125 15.601562 -2.019531 10.375 -7.125 Z M 10.375 -7.125 "/></g></g></g><g fill="#ffffff" fill-opacity="1"><g transform="translate(627.821712, 427.500116)"><g><path d="M 23.46875 -43.28125 C 21.875 -43.28125 20.5625 -42.851562 19.53125 -42 C 18.507812 -41.144531 18 -39.914062 18 -38.3125 C 18 -36.71875 18.472656 -35.429688 19.421875 -34.453125 C 20.367188 -33.484375 21.601562 -32.734375 23.125 -32.203125 C 24.65625 -31.679688 26.359375 -31.179688 28.234375 -30.703125 C 30.109375 -30.234375 31.96875 -29.660156 33.8125 -28.984375 C 35.664062 -28.304688 37.351562 -27.46875 38.875 -26.46875 C 40.40625 -25.46875 41.644531 -24.054688 42.59375 -22.234375 C 43.550781 -20.410156 44.03125 -18.222656 44.03125 -15.671875 C 44.03125 -11.222656 42.21875 -7.410156 38.59375 -4.234375 C 34.96875 -1.054688 30.191406 0.53125 24.265625 0.53125 C 18.335938 0.53125 13.5625 -0.894531 9.9375 -3.75 C 6.3125 -6.601562 4.5 -10.65625 4.5 -15.90625 L 18.15625 -15.90625 C 18.5 -11.695312 20.644531 -9.59375 24.59375 -9.59375 C 26.445312 -9.59375 27.898438 -10.082031 28.953125 -11.0625 C 30.003906 -12.039062 30.53125 -13.28125 30.53125 -14.78125 C 30.53125 -16.28125 30.050781 -17.503906 29.09375 -18.453125 C 28.144531 -19.398438 26.90625 -20.148438 25.375 -20.703125 C 23.851562 -21.253906 22.15625 -21.765625 20.28125 -22.234375 C 18.40625 -22.710938 16.539062 -23.300781 14.6875 -24 C 12.84375 -24.695312 11.15625 -25.53125 9.625 -26.5 C 8.101562 -27.476562 6.867188 -28.878906 5.921875 -30.703125 C 4.972656 -32.535156 4.5 -34.703125 4.5 -37.203125 C 4.5 -42.097656 6.320312 -46.019531 9.96875 -48.96875 C 13.625 -51.925781 18.285156 -53.40625 23.953125 -53.40625 C 29.628906 -53.40625 34.21875 -52.113281 37.71875 -49.53125 C 41.21875 -46.957031 43.046875 -42.894531 43.203125 -37.34375 L 29.25 -37.34375 C 29.050781 -39.25 28.4375 -40.710938 27.40625 -41.734375 C 26.382812 -42.765625 25.070312 -43.28125 23.46875 -43.28125 Z M 23.46875 -43.28125 "/></g></g></g></svg>