<svg xmlns="http://www.w3.org/2000/svg" xmlns:xlink="http://www.w3.org/1999/xlink" width="1080" zoomAndPan="magnify" viewBox="0 0 810 809.999993" height="1080" preserveAspectRatio="xMidYMid meet" version="1.0"><defs><g/><clipPath id="8ca60c71f1"><path d="M 46.480469 456.082031 L 235.480469 456.082031 L 235.480469 645.082031 L 46.480469 645.082031 Z M 46.480469 456.082031 " clip-rule="nonzero"/></clipPath><clipPath id="bc7c13ecf1"><path d="M 583.402344 241.433594 L 791.902344 241.433594 L 791.902344 449.933594 L 583.402344 449.933594 Z M 583.402344 241.433594 " clip-rule="nonzero"/></clipPath><clipPath id="7bc10cc9e5"><path d="M 97.828125 97.828125 L 712.078125 97.828125 L 712.078125 712.078125 L 97.828125 712.078125 Z M 97.828125 97.828125 " clip-rule="nonzero"/></clipPath></defs><rect x="-81" width="972" fill="#ffffff" y="-80.999999" height="971.999992" fill-opacity="1"/><rect x="-81" width="972" fill="#ffffff" y="-80.999999" height="971.999992" fill-opacity="1"/><g clip-path="url(#8ca60c71f1)"><path fill="#29abe2" d="M 140.980469 456.082031 C 88.792969 456.082031 46.480469 498.394531 46.480469 550.582031 C 46.480469 602.773438 88.792969 645.082031 140.980469 645.082031 C 193.171875 645.082031 235.480469 602.773438 235.480469 550.582031 C 235.480469 498.394531 193.171875 456.082031 140.980469 456.082031 " fill-opacity="1" fill-rule="nonzero"/></g><g clip-path="url(#bc7c13ecf1)"><path fill="#0031e2" d="M 687.652344 241.433594 C 630.074219 241.433594 583.402344 288.105469 583.402344 345.683594 C 583.402344 403.257812 630.074219 449.933594 687.652344 449.933594 C 745.226562 449.933594 791.902344 403.257812 791.902344 345.683594 C 791.902344 288.105469 745.226562 241.433594 687.652344 241.433594 " fill-opacity="1" fill-rule="nonzero"/></g><g clip-path="url(#7bc10cc9e5)"><path fill="#990587" d="M 404.953125 97.828125 C 235.332031 97.828125 97.828125 235.332031 97.828125 404.953125 C 97.828125 574.570312 235.332031 712.078125 404.953125 712.078125 C 574.570312 712.078125 712.078125 574.570312 712.078125 404.953125 C 712.078125 235.332031 574.570312 97.828125 404.953125 97.828125 " fill-opacity="1" fill-rule="nonzero"/></g><g fill="#ffffff" fill-opacity="1"><g transform="translate(151.401081, 449.499842)"><g><path d="M 7.5 -70.203125 L 24.59375 -70.203125 L 24.59375 -13 L 45.90625 -13 L 45.90625 0 L 7.5 0 Z M 7.5 -70.203125 "/></g></g></g><g fill="#ffffff" fill-opacity="1"><g transform="translate(199.299238, 449.499842)"><g><path d="M 7.5 -70.203125 L 24.59375 -70.203125 L 24.59375 -13 L 45.90625 -13 L 45.90625 0 L 7.5 0 Z M 7.5 -70.203125 "/></g></g></g><g fill="#ffffff" fill-opacity="1"><g transform="translate(247.197395, 449.499842)"><g><path d="M 52.09375 0 L 48.203125 -11.796875 L 23 -11.796875 L 19.09375 0 L 0.90625 0 L 25.296875 -70.40625 L 46.09375 -70.40625 L 70.40625 0 Z M 27.296875 -24.796875 L 43.90625 -24.796875 L 35.59375 -49.796875 Z M 27.296875 -24.796875 "/></g></g></g><g fill="#ffffff" fill-opacity="1"><g transform="translate(318.494644, 449.499842)"><g><path d="M 25.59375 0 L 0.703125 -70.203125 L 18.90625 -70.203125 L 36.296875 -16.703125 L 53.703125 -70.203125 L 71.90625 -70.203125 L 47 0 Z M 25.59375 0 "/></g></g></g><g fill="#ffffff" fill-opacity="1"><g transform="translate(391.09185, 449.499842)"><g><path d="M 50 -70.40625 L 50 -57.40625 L 24.59375 -57.40625 L 24.59375 -42.296875 L 47 -42.296875 L 47 -29.296875 L 24.59375 -29.296875 L 24.59375 -13 L 50 -13 L 50 0 L 7.5 0 L 7.5 -70.40625 Z M 50 -70.40625 "/></g></g></g><g fill="#ffffff" fill-opacity="1"><g transform="translate(448.289647, 449.499842)"><g><path d="M 24.59375 -27.296875 L 24.59375 0 L 7.5 0 L 7.5 -70.203125 L 35.203125 -70.203125 C 43.335938 -70.203125 49.671875 -68.097656 54.203125 -63.890625 C 58.734375 -59.691406 61 -54.628906 61 -48.703125 C 61 -44.628906 59.765625 -40.660156 57.296875 -36.796875 C 54.828125 -32.929688 50.796875 -30.195312 45.203125 -28.59375 L 62.40625 0 L 42.40625 0 L 26.59375 -27.296875 Z M 24.59375 -57.203125 L 24.59375 -40.296875 L 35.203125 -40.296875 C 37.796875 -40.296875 39.84375 -41.0625 41.34375 -42.59375 C 42.84375 -44.132812 43.59375 -46.15625 43.59375 -48.65625 C 43.59375 -51.15625 42.828125 -53.203125 41.296875 -54.796875 C 39.765625 -56.398438 37.734375 -57.203125 35.203125 -57.203125 Z M 24.59375 -57.203125 "/></g></g></g><g fill="#ffffff" fill-opacity="1"><g transform="translate(515.087068, 449.499842)"><g><path d="M 52.84375 -20.59375 C 56.21875 -24.257812 57.90625 -29.160156 57.90625 -35.296875 C 57.90625 -41.429688 56.21875 -46.332031 52.84375 -50 C 49.476562 -53.664062 44.976562 -55.5 39.34375 -55.5 C 33.71875 -55.5 29.21875 -53.664062 25.84375 -50 C 22.476562 -46.332031 20.796875 -41.429688 20.796875 -35.296875 C 20.796875 -29.160156 22.476562 -24.257812 25.84375 -20.59375 C 29.21875 -16.925781 33.71875 -15.09375 39.34375 -15.09375 C 44.976562 -15.09375 49.476562 -16.925781 52.84375 -20.59375 Z M 13.84375 -9.5 C 6.882812 -16.300781 3.40625 -24.898438 3.40625 -35.296875 C 3.40625 -45.703125 6.882812 -54.285156 13.84375 -61.046875 C 20.8125 -67.816406 29.34375 -71.203125 39.4375 -71.203125 C 49.539062 -71.203125 58.039062 -67.816406 64.9375 -61.046875 C 71.84375 -54.285156 75.296875 -45.703125 75.296875 -35.296875 C 75.296875 -24.898438 71.828125 -16.300781 64.890625 -9.5 C 57.960938 -2.695312 49.460938 0.703125 39.390625 0.703125 C 29.328125 0.703125 20.8125 -2.695312 13.84375 -9.5 Z M 13.84375 -9.5 "/></g></g></g><g fill="#ffffff" fill-opacity="1"><g transform="translate(593.88403, 449.499842)"><g><path d="M 31.296875 -57.703125 C 29.160156 -57.703125 27.410156 -57.132812 26.046875 -56 C 24.679688 -54.863281 24 -53.226562 24 -51.09375 C 24 -48.96875 24.628906 -47.253906 25.890625 -45.953125 C 27.160156 -44.648438 28.8125 -43.648438 30.84375 -42.953125 C 32.882812 -42.253906 35.15625 -41.585938 37.65625 -40.953125 C 40.15625 -40.316406 42.632812 -39.546875 45.09375 -38.640625 C 47.5625 -37.742188 49.8125 -36.628906 51.84375 -35.296875 C 53.882812 -33.960938 55.535156 -32.078125 56.796875 -29.640625 C 58.066406 -27.210938 58.703125 -24.300781 58.703125 -20.90625 C 58.703125 -14.96875 56.285156 -9.878906 51.453125 -5.640625 C 46.617188 -1.410156 40.25 0.703125 32.34375 0.703125 C 24.445312 0.703125 18.082031 -1.195312 13.25 -5 C 8.414062 -8.800781 6 -14.203125 6 -21.203125 L 24.203125 -21.203125 C 24.671875 -15.597656 27.535156 -12.796875 32.796875 -12.796875 C 35.265625 -12.796875 37.195312 -13.445312 38.59375 -14.75 C 40 -16.050781 40.703125 -17.703125 40.703125 -19.703125 C 40.703125 -21.703125 40.066406 -23.332031 38.796875 -24.59375 C 37.535156 -25.863281 35.882812 -26.863281 33.84375 -27.59375 C 31.8125 -28.332031 29.546875 -29.015625 27.046875 -29.640625 C 24.546875 -30.273438 22.0625 -31.0625 19.59375 -32 C 17.132812 -32.9375 14.882812 -34.050781 12.84375 -35.34375 C 10.8125 -36.644531 9.160156 -38.507812 7.890625 -40.9375 C 6.628906 -43.375 6 -46.257812 6 -49.59375 C 6 -56.132812 8.429688 -61.367188 13.296875 -65.296875 C 18.160156 -69.234375 24.375 -71.203125 31.9375 -71.203125 C 39.507812 -71.203125 45.628906 -69.484375 50.296875 -66.046875 C 54.960938 -62.617188 57.394531 -57.203125 57.59375 -49.796875 L 39 -49.796875 C 38.726562 -52.328125 37.910156 -54.273438 36.546875 -55.640625 C 35.179688 -57.015625 33.429688 -57.703125 31.296875 -57.703125 Z M 31.296875 -57.703125 "/></g></g></g></svg>