<svg xmlns="http://www.w3.org/2000/svg" xmlns:xlink="http://www.w3.org/1999/xlink" width="1080" zoomAndPan="magnify" viewBox="0 0 810 809.999993" height="1080" preserveAspectRatio="xMidYMid meet" version="1.0"><defs><g/><clipPath id="a4ce488cf2"><path d="M 253.503906 81 L 354.753906 81 L 354.753906 182.25 L 253.503906 182.25 Z M 253.503906 81 " clip-rule="nonzero"/></clipPath><clipPath id="4a36808a49"><path d="M 167.460938 97.828125 L 268.710938 97.828125 L 268.710938 199.078125 L 167.460938 199.078125 Z M 167.460938 97.828125 " clip-rule="nonzero"/></clipPath><clipPath id="772b20389d"><path d="M 479.117188 495.945312 L 712.367188 495.945312 L 712.367188 729.195312 L 479.117188 729.195312 Z M 479.117188 495.945312 " clip-rule="nonzero"/></clipPath><clipPath id="42ee5ee020"><path d="M 97.828125 97.828125 L 712.078125 97.828125 L 712.078125 712.078125 L 97.828125 712.078125 Z M 97.828125 97.828125 " clip-rule="nonzero"/></clipPath></defs><rect x="-81" width="972" fill="#ffffff" y="-80.999999" height="971.999992" fill-opacity="1"/><rect x="-81" width="972" fill="#ffffff" y="-80.999999" height="971.999992" fill-opacity="1"/><g clip-path="url(#a4ce488cf2)"><path fill="#29abe2" d="M 304.128906 81 C 276.167969 81 253.503906 103.664062 253.503906 131.625 C 253.503906 159.585938 276.167969 182.25 304.128906 182.25 C 332.085938 182.25 354.753906 159.585938 354.753906 131.625 C 354.753906 103.664062 332.085938 81 304.128906 81 " fill-opacity="1" fill-rule="nonzero"/></g><g clip-path="url(#4a36808a49)"><path fill="#51009d" d="M 218.085938 97.828125 C 190.128906 97.828125 167.460938 120.492188 167.460938 148.453125 C 167.460938 176.410156 190.128906 199.078125 218.085938 199.078125 C 246.046875 199.078125 268.710938 176.410156 268.710938 148.453125 C 268.710938 120.492188 246.046875 97.828125 218.085938 97.828125 " fill-opacity="1" fill-rule="nonzero"/></g><g clip-path="url(#772b20389d)"><path fill="#51009d" d="M 595.742188 495.945312 C 531.332031 495.945312 479.117188 548.160156 479.117188 612.570312 C 479.117188 676.980469 531.332031 729.195312 595.742188 729.195312 C 660.152344 729.195312 712.367188 676.980469 712.367188 612.570312 C 712.367188 548.160156 660.152344 495.945312 595.742188 495.945312 " fill-opacity="1" fill-rule="nonzero"/></g><g clip-path="url(#42ee5ee020)"><path fill="#ff5a00" d="M 404.953125 97.828125 C 235.332031 97.828125 97.828125 235.332031 97.828125 404.953125 C 97.828125 574.570312 235.332031 712.078125 404.953125 712.078125 C 574.570312 712.078125 712.078125 574.570312 712.078125 404.953125 C 712.078125 235.332031 574.570312 97.828125 404.953125 97.828125 " fill-opacity="1" fill-rule="nonzero"/></g><g fill="#ffffff" fill-opacity="1"><g transform="translate(159.862018, 427.500234)"><g><path d="M 10.375 -7.15625 C 5.15625 -12.238281 2.546875 -18.675781 2.546875 -26.46875 C 2.546875 -34.269531 5.15625 -40.707031 10.375 -45.78125 C 15.601562 -50.863281 21.992188 -53.40625 29.546875 -53.40625 C 35.398438 -53.40625 40.597656 -51.851562 45.140625 -48.75 C 49.691406 -45.644531 52.867188 -41.34375 54.671875 -35.84375 L 39.375 -35.84375 C 37.375 -39.695312 34.171875 -41.625 29.765625 -41.625 C 25.367188 -41.625 21.90625 -40.25 19.375 -37.5 C 16.851562 -34.75 15.59375 -31.070312 15.59375 -26.46875 C 15.59375 -21.875 16.851562 -18.203125 19.375 -15.453125 C 21.90625 -12.703125 25.367188 -11.328125 29.765625 -11.328125 C 34.171875 -11.328125 37.375 -13.25 39.375 -17.09375 L 54.671875 -17.09375 C 52.867188 -11.59375 49.691406 -7.289062 45.140625 -4.1875 C 40.597656 -1.09375 35.398438 0.453125 29.546875 0.453125 C 21.992188 0.453125 15.601562 -2.082031 10.375 -7.15625 Z M 10.375 -7.15625 "/></g></g></g><g fill="#ffffff" fill-opacity="1"><g transform="translate(217.161965, 427.500234)"><g><path d="M 5.625 0 L 5.625 -52.65625 L 18.453125 -52.65625 L 18.453125 0 Z M 5.625 0 "/></g></g></g><g fill="#ffffff" fill-opacity="1"><g transform="translate(241.236946, 427.500234)"><g><path d="M 5.625 -52.65625 L 28.5 -52.65625 C 33.851562 -52.65625 38.113281 -51.351562 41.28125 -48.75 C 44.457031 -46.144531 46.046875 -42.84375 46.046875 -38.84375 C 46.046875 -32.894531 42.570312 -28.875 35.625 -26.78125 C 39.175781 -26.28125 42 -24.800781 44.09375 -22.34375 C 46.195312 -19.894531 47.25 -17.019531 47.25 -13.71875 C 47.25 -9.519531 45.710938 -6.179688 42.640625 -3.703125 C 39.566406 -1.234375 35.28125 0 29.78125 0 L 5.625 0 Z M 18.453125 -42.90625 L 18.453125 -31.5 L 26.84375 -31.5 C 28.695312 -31.5 30.1875 -31.972656 31.3125 -32.921875 C 32.4375 -33.867188 33 -35.28125 33 -37.15625 C 33 -39.03125 32.4375 -40.457031 31.3125 -41.4375 C 30.1875 -42.414062 28.695312 -42.90625 26.84375 -42.90625 Z M 18.453125 -9.75 L 28.125 -9.75 C 29.875 -9.75 31.320312 -10.273438 32.46875 -11.328125 C 33.625 -12.378906 34.203125 -13.828125 34.203125 -15.671875 C 34.203125 -17.523438 33.648438 -19 32.546875 -20.09375 C 31.453125 -21.195312 30.03125 -21.75 28.28125 -21.75 L 18.453125 -21.75 Z M 18.453125 -9.75 "/></g></g></g><g fill="#ffffff" fill-opacity="1"><g transform="translate(291.786893, 427.500234)"><g><path d="M 37.5 -52.796875 L 37.5 -43.046875 L 18.453125 -43.046875 L 18.453125 -31.71875 L 35.25 -31.71875 L 35.25 -21.96875 L 18.453125 -21.96875 L 18.453125 -9.75 L 37.5 -9.75 L 37.5 0 L 5.625 0 L 5.625 -52.796875 Z M 37.5 -52.796875 "/></g></g></g><g fill="#ffffff" fill-opacity="1"><g transform="translate(334.686854, 427.500234)"><g><path d="M 18.453125 -20.46875 L 18.453125 0 L 5.625 0 L 5.625 -52.65625 L 26.40625 -52.65625 C 32.5 -52.65625 37.242188 -51.078125 40.640625 -47.921875 C 44.046875 -44.773438 45.75 -40.976562 45.75 -36.53125 C 45.75 -33.476562 44.820312 -30.5 42.96875 -27.59375 C 41.125 -24.695312 38.101562 -22.648438 33.90625 -21.453125 L 46.796875 0 L 31.796875 0 L 19.953125 -20.46875 Z M 18.453125 -42.90625 L 18.453125 -30.21875 L 26.40625 -30.21875 C 28.351562 -30.21875 29.890625 -30.789062 31.015625 -31.9375 C 32.140625 -33.09375 32.703125 -34.609375 32.703125 -36.484375 C 32.703125 -38.359375 32.125 -39.894531 30.96875 -41.09375 C 29.820312 -42.300781 28.300781 -42.90625 26.40625 -42.90625 Z M 18.453125 -42.90625 "/></g></g></g><g fill="#ffffff" fill-opacity="1"><g transform="translate(384.786797, 427.500234)"><g><path d="M 37.5 -52.796875 L 37.5 -43.046875 L 18.453125 -43.046875 L 18.453125 -31.71875 L 35.25 -31.71875 L 35.25 -21.96875 L 18.453125 -21.96875 L 18.453125 -9.75 L 37.5 -9.75 L 37.5 0 L 5.625 0 L 5.625 -52.796875 Z M 37.5 -52.796875 "/></g></g></g><g fill="#ffffff" fill-opacity="1"><g transform="translate(427.686758, 427.500234)"><g><path d="M 23.46875 -43.28125 C 21.875 -43.28125 20.5625 -42.851562 19.53125 -42 C 18.507812 -41.144531 18 -39.914062 18 -38.3125 C 18 -36.71875 18.472656 -35.429688 19.421875 -34.453125 C 20.367188 -33.484375 21.601562 -32.734375 23.125 -32.203125 C 24.65625 -31.679688 26.359375 -31.179688 28.234375 -30.703125 C 30.109375 -30.234375 31.96875 -29.660156 33.8125 -28.984375 C 35.664062 -28.304688 37.351562 -27.46875 38.875 -26.46875 C 40.40625 -25.46875 41.644531 -24.054688 42.59375 -22.234375 C 43.550781 -20.410156 44.03125 -18.222656 44.03125 -15.671875 C 44.03125 -11.222656 42.21875 -7.410156 38.59375 -4.234375 C 34.96875 -1.054688 30.191406 0.53125 24.265625 0.53125 C 18.335938 0.53125 13.5625 -0.894531 9.9375 -3.75 C 6.3125 -6.601562 4.5 -10.65625 4.5 -15.90625 L 18.15625 -15.90625 C 18.5 -11.695312 20.644531 -9.59375 24.59375 -9.59375 C 26.445312 -9.59375 27.898438 -10.082031 28.953125 -11.0625 C 30.003906 -12.039062 30.53125 -13.28125 30.53125 -14.78125 C 30.53125 -16.28125 30.050781 -17.503906 29.09375 -18.453125 C 28.144531 -19.398438 26.90625 -20.148438 25.375 -20.703125 C 23.851562 -21.253906 22.15625 -21.765625 20.28125 -22.234375 C 18.40625 -22.710938 16.539062 -23.300781 14.6875 -24 C 12.84375 -24.695312 11.15625 -25.53125 9.625 -26.5 C 8.101562 -27.476562 6.867188 -28.878906 5.921875 -30.703125 C 4.972656 -32.535156 4.5 -34.703125 4.5 -37.203125 C 4.5 -42.097656 6.320312 -46.019531 9.96875 -48.96875 C 13.625 -51.925781 18.285156 -53.40625 23.953125 -53.40625 C 29.628906 -53.40625 34.21875 -52.113281 37.71875 -49.53125 C 41.21875 -46.957031 43.046875 -42.894531 43.203125 -37.34375 L 29.25 -37.34375 C 29.050781 -39.25 28.4375 -40.710938 27.40625 -41.734375 C 26.382812 -42.765625 25.070312 -43.28125 23.46875 -43.28125 Z M 23.46875 -43.28125 "/></g></g></g><g fill="#ffffff" fill-opacity="1"><g transform="translate(476.211719, 427.500234)"><g><path d="M 45.75 -36.53125 C 45.75 -32.976562 44.472656 -29.550781 41.921875 -26.25 C 40.578125 -24.550781 38.566406 -23.160156 35.890625 -22.078125 C 33.210938 -21.003906 30.050781 -20.46875 26.40625 -20.46875 L 18.453125 -20.46875 L 18.453125 0 L 5.625 0 L 5.625 -52.65625 L 26.40625 -52.65625 C 32.5 -52.65625 37.242188 -51.078125 40.640625 -47.921875 C 44.046875 -44.773438 45.75 -40.976562 45.75 -36.53125 Z M 18.453125 -30.21875 L 26.40625 -30.21875 C 28.351562 -30.21875 29.890625 -30.789062 31.015625 -31.9375 C 32.140625 -33.09375 32.703125 -34.609375 32.703125 -36.484375 C 32.703125 -38.359375 32.125 -39.894531 30.96875 -41.09375 C 29.820312 -42.300781 28.300781 -42.90625 26.40625 -42.90625 L 18.453125 -42.90625 Z M 18.453125 -30.21875 "/></g></g></g><g fill="#ffffff" fill-opacity="1"><g transform="translate(524.061662, 427.500234)"><g><path d="M 0.75 -53.546875 L 18.828125 -62.25 L 18.828125 -52.28125 L 0.75 -44.703125 Z M 0.75 -53.546875 "/></g></g></g><g fill="#ffffff" fill-opacity="1"><g transform="translate(524.061662, 427.500234)"><g><path d="M 5.625 0 L 5.625 -52.65625 L 18.453125 -52.65625 L 18.453125 0 Z M 5.625 0 "/></g></g></g><g fill="#ffffff" fill-opacity="1"><g transform="translate(548.136643, 427.500234)"><g><path d="M 39.078125 0 L 36.15625 -8.84375 L 17.25 -8.84375 L 14.328125 0 L 0.671875 0 L 18.96875 -52.796875 L 34.578125 -52.796875 L 52.796875 0 Z M 20.46875 -18.59375 L 32.921875 -18.59375 L 26.703125 -37.34375 Z M 20.46875 -18.59375 "/></g></g></g><g fill="#ffffff" fill-opacity="1"><g transform="translate(601.611585, 427.500234)"><g><path d="M 23.46875 -43.28125 C 21.875 -43.28125 20.5625 -42.851562 19.53125 -42 C 18.507812 -41.144531 18 -39.914062 18 -38.3125 C 18 -36.71875 18.472656 -35.429688 19.421875 -34.453125 C 20.367188 -33.484375 21.601562 -32.734375 23.125 -32.203125 C 24.65625 -31.679688 26.359375 -31.179688 28.234375 -30.703125 C 30.109375 -30.234375 31.96875 -29.660156 33.8125 -28.984375 C 35.664062 -28.304688 37.351562 -27.46875 38.875 -26.46875 C 40.40625 -25.46875 41.644531 -24.054688 42.59375 -22.234375 C 43.550781 -20.410156 44.03125 -18.222656 44.03125 -15.671875 C 44.03125 -11.222656 42.21875 -7.410156 38.59375 -4.234375 C 34.96875 -1.054688 30.191406 0.53125 24.265625 0.53125 C 18.335938 0.53125 13.5625 -0.894531 9.9375 -3.75 C 6.3125 -6.601562 4.5 -10.65625 4.5 -15.90625 L 18.15625 -15.90625 C 18.5 -11.695312 20.644531 -9.59375 24.59375 -9.59375 C 26.445312 -9.59375 27.898438 -10.082031 28.953125 -11.0625 C 30.003906 -12.039062 30.53125 -13.28125 30.53125 -14.78125 C 30.53125 -16.28125 30.050781 -17.503906 29.09375 -18.453125 C 28.144531 -19.398438 26.90625 -20.148438 25.375 -20.703125 C 23.851562 -21.253906 22.15625 -21.765625 20.28125 -22.234375 C 18.40625 -22.710938 16.539062 -23.300781 14.6875 -24 C 12.84375 -24.695312 11.15625 -25.53125 9.625 -26.5 C 8.101562 -27.476562 6.867188 -28.878906 5.921875 -30.703125 C 4.972656 -32.535156 4.5 -34.703125 4.5 -37.203125 C 4.5 -42.097656 6.320312 -46.019531 9.96875 -48.96875 C 13.625 -51.925781 18.285156 -53.40625 23.953125 -53.40625 C 29.628906 -53.40625 34.21875 -52.113281 37.71875 -49.53125 C 41.21875 -46.957031 43.046875 -42.894531 43.203125 -37.34375 L 29.25 -37.34375 C 29.050781 -39.25 28.4375 -40.710938 27.40625 -41.734375 C 26.382812 -42.765625 25.070312 -43.28125 23.46875 -43.28125 Z M 23.46875 -43.28125 "/></g></g></g></svg>